<mxfile host="app.diagrams.net" modified="2023-01-28T18:37:17.744Z" agent="5.0 (Windows NT 10.0; WOW64) AppleWebKit/537.36 (KHTML, like Gecko) Chrome/86.0.4240.198 Safari/537.36" etag="zgjyqeSiWwY_u4mGi9Tc" version="20.8.5" type="github">
  <diagram id="uHXWS0pQzFWdipmOSE3i" name="第 1 页">
    <mxGraphModel dx="1434" dy="1912" grid="1" gridSize="10" guides="1" tooltips="1" connect="1" arrows="1" fold="1" page="1" pageScale="1" pageWidth="827" pageHeight="1169" math="0" shadow="0">
      <root>
        <mxCell id="0" />
        <mxCell id="1" parent="0" />
        <mxCell id="fZUv5z6-WZGmwpLBm6Op-58" value="" style="edgeStyle=orthogonalEdgeStyle;curved=1;orthogonalLoop=1;jettySize=auto;html=1;fontColor=#000000;elbow=vertical;fillColor=#0050ef;strokeColor=#001DBC;" parent="1" source="fZUv5z6-WZGmwpLBm6Op-52" target="fZUv5z6-WZGmwpLBm6Op-57" edge="1">
          <mxGeometry relative="1" as="geometry" />
        </mxCell>
        <mxCell id="fZUv5z6-WZGmwpLBm6Op-62" value="" style="edgeStyle=orthogonalEdgeStyle;curved=1;orthogonalLoop=1;jettySize=auto;html=1;fontColor=#000000;elbow=vertical;fillColor=#0050ef;strokeColor=#001DBC;" parent="1" source="fZUv5z6-WZGmwpLBm6Op-52" target="fZUv5z6-WZGmwpLBm6Op-61" edge="1">
          <mxGeometry relative="1" as="geometry" />
        </mxCell>
        <mxCell id="fZUv5z6-WZGmwpLBm6Op-71" value="" style="edgeStyle=orthogonalEdgeStyle;curved=1;orthogonalLoop=1;jettySize=auto;html=1;fontColor=#000000;elbow=vertical;fillColor=#0050ef;strokeColor=#001DBC;" parent="1" source="fZUv5z6-WZGmwpLBm6Op-52" target="fZUv5z6-WZGmwpLBm6Op-70" edge="1">
          <mxGeometry relative="1" as="geometry" />
        </mxCell>
        <mxCell id="fZUv5z6-WZGmwpLBm6Op-97" style="edgeStyle=orthogonalEdgeStyle;curved=1;orthogonalLoop=1;jettySize=auto;html=1;fontColor=#000000;strokeWidth=1;elbow=vertical;fillColor=#0050ef;strokeColor=#001DBC;" parent="1" source="fZUv5z6-WZGmwpLBm6Op-52" target="fZUv5z6-WZGmwpLBm6Op-95" edge="1">
          <mxGeometry relative="1" as="geometry" />
        </mxCell>
        <mxCell id="fZUv5z6-WZGmwpLBm6Op-105" style="edgeStyle=orthogonalEdgeStyle;curved=1;orthogonalLoop=1;jettySize=auto;html=1;fontColor=#000000;strokeWidth=1;elbow=vertical;fillColor=#0050ef;strokeColor=#001DBC;" parent="1" source="fZUv5z6-WZGmwpLBm6Op-52" target="fZUv5z6-WZGmwpLBm6Op-100" edge="1">
          <mxGeometry relative="1" as="geometry" />
        </mxCell>
        <mxCell id="fZUv5z6-WZGmwpLBm6Op-107" style="edgeStyle=orthogonalEdgeStyle;curved=1;orthogonalLoop=1;jettySize=auto;html=1;fontColor=#000000;strokeWidth=1;elbow=vertical;fillColor=#0050ef;strokeColor=#001DBC;" parent="1" source="fZUv5z6-WZGmwpLBm6Op-52" target="fZUv5z6-WZGmwpLBm6Op-53" edge="1">
          <mxGeometry relative="1" as="geometry" />
        </mxCell>
        <mxCell id="fZUv5z6-WZGmwpLBm6Op-52" value="&lt;font color=&quot;#000000&quot;&gt;香港1&lt;br&gt;&lt;br&gt;&lt;/font&gt;" style="shape=mxgraph.cisco.routers.router;sketch=0;html=1;pointerEvents=1;dashed=0;fillColor=#036897;strokeColor=#ffffff;strokeWidth=2;verticalLabelPosition=bottom;verticalAlign=top;align=center;outlineConnect=0;fontColor=#FF3333;" parent="1" vertex="1">
          <mxGeometry x="350" y="220" width="78" height="53" as="geometry" />
        </mxCell>
        <mxCell id="fZUv5z6-WZGmwpLBm6Op-88" style="edgeStyle=orthogonalEdgeStyle;curved=1;orthogonalLoop=1;jettySize=auto;html=1;dashed=1;fontColor=#000000;elbow=vertical;fillColor=#60a917;strokeColor=#2D7600;" parent="1" source="fZUv5z6-WZGmwpLBm6Op-53" target="fZUv5z6-WZGmwpLBm6Op-66" edge="1">
          <mxGeometry relative="1" as="geometry" />
        </mxCell>
        <mxCell id="fZUv5z6-WZGmwpLBm6Op-89" style="edgeStyle=orthogonalEdgeStyle;curved=1;orthogonalLoop=1;jettySize=auto;html=1;dashed=1;fontColor=#000000;elbow=vertical;fillColor=#60a917;strokeColor=#2D7600;" parent="1" source="fZUv5z6-WZGmwpLBm6Op-53" target="fZUv5z6-WZGmwpLBm6Op-64" edge="1">
          <mxGeometry relative="1" as="geometry" />
        </mxCell>
        <mxCell id="fZUv5z6-WZGmwpLBm6Op-53" value="&lt;font color=&quot;#000000&quot;&gt;洛杉矶1&lt;br&gt;&lt;br&gt;&lt;/font&gt;" style="shape=mxgraph.cisco.routers.router;sketch=0;html=1;pointerEvents=1;dashed=0;fillColor=#036897;strokeColor=#ffffff;strokeWidth=2;verticalLabelPosition=bottom;verticalAlign=top;align=center;outlineConnect=0;fontColor=#FF3333;" parent="1" vertex="1">
          <mxGeometry x="827" y="400" width="78" height="53" as="geometry" />
        </mxCell>
        <mxCell id="fZUv5z6-WZGmwpLBm6Op-69" style="edgeStyle=orthogonalEdgeStyle;curved=1;orthogonalLoop=1;jettySize=auto;html=1;fontColor=#000000;elbow=vertical;fillColor=#0050ef;strokeColor=#001DBC;" parent="1" source="fZUv5z6-WZGmwpLBm6Op-55" target="fZUv5z6-WZGmwpLBm6Op-53" edge="1">
          <mxGeometry relative="1" as="geometry" />
        </mxCell>
        <mxCell id="fZUv5z6-WZGmwpLBm6Op-55" value="&lt;font color=&quot;#000000&quot;&gt;纽约&lt;br&gt;&lt;br&gt;&lt;/font&gt;" style="shape=mxgraph.cisco.routers.router;sketch=0;html=1;pointerEvents=1;dashed=0;fillColor=#036897;strokeColor=#ffffff;strokeWidth=2;verticalLabelPosition=bottom;verticalAlign=top;align=center;outlineConnect=0;fontColor=#FF3333;" parent="1" vertex="1">
          <mxGeometry x="350" y="400" width="78" height="53" as="geometry" />
        </mxCell>
        <mxCell id="fZUv5z6-WZGmwpLBm6Op-116" style="edgeStyle=orthogonalEdgeStyle;curved=1;orthogonalLoop=1;jettySize=auto;html=1;fontColor=#000000;strokeWidth=1;elbow=vertical;fillColor=#0050ef;strokeColor=#001DBC;" parent="1" source="fZUv5z6-WZGmwpLBm6Op-57" target="fZUv5z6-WZGmwpLBm6Op-55" edge="1">
          <mxGeometry relative="1" as="geometry" />
        </mxCell>
        <mxCell id="fZUv5z6-WZGmwpLBm6Op-57" value="&lt;font color=&quot;#000000&quot;&gt;法兰克福&lt;br&gt;&lt;/font&gt;" style="shape=mxgraph.cisco.routers.router;sketch=0;html=1;pointerEvents=1;dashed=0;fillColor=#036897;strokeColor=#ffffff;strokeWidth=2;verticalLabelPosition=bottom;verticalAlign=top;align=center;outlineConnect=0;fontColor=#FF3333;" parent="1" vertex="1">
          <mxGeometry x="120" y="401.5" width="78" height="50" as="geometry" />
        </mxCell>
        <mxCell id="fZUv5z6-WZGmwpLBm6Op-63" value="" style="edgeStyle=orthogonalEdgeStyle;curved=1;orthogonalLoop=1;jettySize=auto;html=1;fontColor=#000000;elbow=vertical;fillColor=#0050ef;strokeColor=#001DBC;" parent="1" source="fZUv5z6-WZGmwpLBm6Op-61" target="fZUv5z6-WZGmwpLBm6Op-53" edge="1">
          <mxGeometry relative="1" as="geometry" />
        </mxCell>
        <mxCell id="fZUv5z6-WZGmwpLBm6Op-64" value="&lt;font color=&quot;#000000&quot;&gt;洛杉矶2&lt;br&gt;&lt;br&gt;&lt;br&gt;&lt;/font&gt;" style="shape=mxgraph.cisco.routers.router;sketch=0;html=1;pointerEvents=1;dashed=0;fillColor=#036897;strokeColor=#ffffff;strokeWidth=2;verticalLabelPosition=bottom;verticalAlign=top;align=center;outlineConnect=0;fontColor=#FF3333;" parent="1" vertex="1">
          <mxGeometry x="1010" y="398.5" width="78" height="53" as="geometry" />
        </mxCell>
        <mxCell id="fZUv5z6-WZGmwpLBm6Op-66" value="&lt;font color=&quot;#000000&quot;&gt;拉斯维加斯&lt;br&gt;&lt;/font&gt;" style="shape=mxgraph.cisco.routers.router;sketch=0;html=1;pointerEvents=1;dashed=0;fillColor=#036897;strokeColor=#ffffff;strokeWidth=2;verticalLabelPosition=bottom;verticalAlign=top;align=center;outlineConnect=0;fontColor=#FF3333;" parent="1" vertex="1">
          <mxGeometry x="1010" y="220" width="78" height="53" as="geometry" />
        </mxCell>
        <mxCell id="fZUv5z6-WZGmwpLBm6Op-94" value="" style="edgeStyle=orthogonalEdgeStyle;curved=1;orthogonalLoop=1;jettySize=auto;html=1;fontColor=#000000;strokeWidth=1;elbow=vertical;dashed=1;fillColor=#60a917;strokeColor=#2D7600;" parent="1" source="fZUv5z6-WZGmwpLBm6Op-70" target="fZUv5z6-WZGmwpLBm6Op-93" edge="1">
          <mxGeometry relative="1" as="geometry" />
        </mxCell>
        <mxCell id="fZUv5z6-WZGmwpLBm6Op-96" value="" style="edgeStyle=orthogonalEdgeStyle;curved=1;orthogonalLoop=1;jettySize=auto;html=1;fontColor=#000000;strokeWidth=1;elbow=vertical;fillColor=#0050ef;strokeColor=#001DBC;" parent="1" source="fZUv5z6-WZGmwpLBm6Op-70" target="fZUv5z6-WZGmwpLBm6Op-95" edge="1">
          <mxGeometry relative="1" as="geometry" />
        </mxCell>
        <mxCell id="fZUv5z6-WZGmwpLBm6Op-99" value="" style="edgeStyle=orthogonalEdgeStyle;curved=1;orthogonalLoop=1;jettySize=auto;html=1;fontColor=#000000;strokeWidth=1;elbow=vertical;fillColor=#0050ef;strokeColor=#001DBC;" parent="1" source="fZUv5z6-WZGmwpLBm6Op-70" target="fZUv5z6-WZGmwpLBm6Op-98" edge="1">
          <mxGeometry relative="1" as="geometry" />
        </mxCell>
        <mxCell id="fZUv5z6-WZGmwpLBm6Op-113" style="edgeStyle=orthogonalEdgeStyle;curved=1;orthogonalLoop=1;jettySize=auto;html=1;fontColor=#000000;strokeWidth=1;elbow=vertical;fillColor=#0050ef;strokeColor=#001DBC;" parent="1" source="fZUv5z6-WZGmwpLBm6Op-70" target="fZUv5z6-WZGmwpLBm6Op-72" edge="1">
          <mxGeometry relative="1" as="geometry" />
        </mxCell>
        <mxCell id="fZUv5z6-WZGmwpLBm6Op-70" value="&lt;font color=&quot;#000000&quot;&gt;香港3&lt;br&gt;&lt;br&gt;&lt;br&gt;&lt;/font&gt;" style="shape=mxgraph.cisco.routers.router;sketch=0;html=1;pointerEvents=1;dashed=0;fillColor=#036897;strokeColor=#ffffff;strokeWidth=2;verticalLabelPosition=bottom;verticalAlign=top;align=center;outlineConnect=0;fontColor=#FF3333;" parent="1" vertex="1">
          <mxGeometry x="350" y="87" width="78" height="53" as="geometry" />
        </mxCell>
        <mxCell id="fZUv5z6-WZGmwpLBm6Op-80" value="" style="edgeStyle=orthogonalEdgeStyle;curved=1;orthogonalLoop=1;jettySize=auto;html=1;fontColor=#000000;elbow=vertical;fillColor=#0050ef;strokeColor=#001DBC;" parent="1" source="fZUv5z6-WZGmwpLBm6Op-72" target="fZUv5z6-WZGmwpLBm6Op-79" edge="1">
          <mxGeometry relative="1" as="geometry" />
        </mxCell>
        <mxCell id="fZUv5z6-WZGmwpLBm6Op-72" value="&lt;font color=&quot;#000000&quot;&gt;广州&lt;br&gt;&lt;/font&gt;" style="shape=mxgraph.cisco.routers.router;sketch=0;html=1;pointerEvents=1;dashed=0;fillColor=#036897;strokeColor=#ffffff;strokeWidth=2;verticalLabelPosition=bottom;verticalAlign=top;align=center;outlineConnect=0;fontColor=#FF3333;" parent="1" vertex="1">
          <mxGeometry x="350" y="-46" width="78" height="53" as="geometry" />
        </mxCell>
        <mxCell id="fZUv5z6-WZGmwpLBm6Op-90" style="edgeStyle=orthogonalEdgeStyle;curved=1;orthogonalLoop=1;jettySize=auto;html=1;entryX=0;entryY=0.5;entryDx=0;entryDy=0;entryPerimeter=0;fontColor=#000000;strokeWidth=1;elbow=vertical;dashed=1;fillColor=#60a917;strokeColor=#2D7600;" parent="1" source="fZUv5z6-WZGmwpLBm6Op-77" target="fZUv5z6-WZGmwpLBm6Op-72" edge="1">
          <mxGeometry relative="1" as="geometry" />
        </mxCell>
        <mxCell id="fZUv5z6-WZGmwpLBm6Op-91" style="edgeStyle=orthogonalEdgeStyle;curved=1;orthogonalLoop=1;jettySize=auto;html=1;fontColor=#000000;strokeWidth=1;elbow=vertical;entryX=0;entryY=0.5;entryDx=0;entryDy=0;entryPerimeter=0;dashed=1;fillColor=#60a917;strokeColor=#2D7600;exitX=0.5;exitY=0;exitDx=0;exitDy=0;exitPerimeter=0;" parent="1" source="fZUv5z6-WZGmwpLBm6Op-77" target="fZUv5z6-WZGmwpLBm6Op-79" edge="1">
          <mxGeometry relative="1" as="geometry">
            <Array as="points">
              <mxPoint x="180" y="-46" />
              <mxPoint x="180" y="-152" />
            </Array>
          </mxGeometry>
        </mxCell>
        <mxCell id="fZUv5z6-WZGmwpLBm6Op-110" style="edgeStyle=orthogonalEdgeStyle;curved=1;orthogonalLoop=1;jettySize=auto;html=1;fontColor=#000000;strokeWidth=1;elbow=vertical;fillColor=#60a917;strokeColor=#2D7600;dashed=1;" parent="1" source="fZUv5z6-WZGmwpLBm6Op-77" target="fZUv5z6-WZGmwpLBm6Op-70" edge="1">
          <mxGeometry relative="1" as="geometry">
            <Array as="points">
              <mxPoint x="169" y="60" />
              <mxPoint x="389" y="60" />
            </Array>
          </mxGeometry>
        </mxCell>
        <mxCell id="fZUv5z6-WZGmwpLBm6Op-77" value="&lt;font color=&quot;#000000&quot;&gt;家&lt;br&gt;&lt;/font&gt;" style="shape=mxgraph.cisco.routers.router;sketch=0;html=1;pointerEvents=1;dashed=0;fillColor=#036897;strokeColor=#ffffff;strokeWidth=2;verticalLabelPosition=bottom;verticalAlign=top;align=center;outlineConnect=0;fontColor=#FF3333;" parent="1" vertex="1">
          <mxGeometry x="130" y="-46" width="78" height="53" as="geometry" />
        </mxCell>
        <mxCell id="fZUv5z6-WZGmwpLBm6Op-81" style="edgeStyle=orthogonalEdgeStyle;curved=1;orthogonalLoop=1;jettySize=auto;html=1;fontColor=#000000;elbow=vertical;entryX=0.5;entryY=0;entryDx=0;entryDy=0;entryPerimeter=0;fillColor=#0050ef;strokeColor=#001DBC;" parent="1" source="fZUv5z6-WZGmwpLBm6Op-79" target="fZUv5z6-WZGmwpLBm6Op-61" edge="1">
          <mxGeometry relative="1" as="geometry">
            <mxPoint x="1000" y="210" as="targetPoint" />
          </mxGeometry>
        </mxCell>
        <mxCell id="fZUv5z6-WZGmwpLBm6Op-108" style="edgeStyle=orthogonalEdgeStyle;curved=1;orthogonalLoop=1;jettySize=auto;html=1;entryX=1;entryY=0.5;entryDx=0;entryDy=0;entryPerimeter=0;fontColor=#000000;strokeWidth=1;elbow=vertical;fillColor=#0050ef;strokeColor=#001DBC;" parent="1" source="fZUv5z6-WZGmwpLBm6Op-79" target="fZUv5z6-WZGmwpLBm6Op-53" edge="1">
          <mxGeometry relative="1" as="geometry" />
        </mxCell>
        <mxCell id="fZUv5z6-WZGmwpLBm6Op-79" value="&lt;font color=&quot;#000000&quot;&gt;上海&lt;br&gt;&lt;/font&gt;" style="shape=mxgraph.cisco.routers.router;sketch=0;html=1;pointerEvents=1;dashed=0;fillColor=#036897;strokeColor=#ffffff;strokeWidth=2;verticalLabelPosition=bottom;verticalAlign=top;align=center;outlineConnect=0;fontColor=#FF3333;fillStyle=solid;" parent="1" vertex="1">
          <mxGeometry x="350" y="-179" width="78" height="53" as="geometry" />
        </mxCell>
        <mxCell id="fZUv5z6-WZGmwpLBm6Op-115" value="" style="edgeStyle=orthogonalEdgeStyle;curved=1;orthogonalLoop=1;jettySize=auto;html=1;fontColor=#000000;strokeWidth=1;elbow=vertical;dashed=1;fillColor=#60a917;strokeColor=#2D7600;" parent="1" source="fZUv5z6-WZGmwpLBm6Op-61" target="fZUv5z6-WZGmwpLBm6Op-114" edge="1">
          <mxGeometry relative="1" as="geometry" />
        </mxCell>
        <mxCell id="fZUv5z6-WZGmwpLBm6Op-61" value="&lt;font color=&quot;#000000&quot;&gt;圣何塞1&lt;br&gt;&lt;/font&gt;" style="shape=mxgraph.cisco.routers.router;sketch=0;html=1;pointerEvents=1;dashed=0;fillColor=#036897;strokeColor=#ffffff;strokeWidth=2;verticalLabelPosition=bottom;verticalAlign=top;align=center;outlineConnect=0;fontColor=#FF3333;" parent="1" vertex="1">
          <mxGeometry x="827" y="220" width="78" height="53" as="geometry" />
        </mxCell>
        <mxCell id="fZUv5z6-WZGmwpLBm6Op-83" value="" style="edgeStyle=orthogonalEdgeStyle;curved=1;orthogonalLoop=1;jettySize=auto;html=1;fontColor=#000000;elbow=vertical;fillColor=#0050ef;strokeColor=#001DBC;endArrow=none;strokeWidth=1;" parent="1" source="fZUv5z6-WZGmwpLBm6Op-53" target="fZUv5z6-WZGmwpLBm6Op-61" edge="1">
          <mxGeometry relative="1" as="geometry">
            <mxPoint x="1108" y="746.5" as="sourcePoint" />
            <mxPoint x="1239" y="860" as="targetPoint" />
          </mxGeometry>
        </mxCell>
        <mxCell id="fZUv5z6-WZGmwpLBm6Op-93" value="&lt;font color=&quot;#000000&quot;&gt;香港2&lt;br&gt;&lt;br&gt;&lt;br&gt;&lt;/font&gt;" style="shape=mxgraph.cisco.routers.router;sketch=0;html=1;pointerEvents=1;dashed=0;fillColor=#036897;strokeColor=#ffffff;strokeWidth=2;verticalLabelPosition=bottom;verticalAlign=top;align=center;outlineConnect=0;fontColor=#FF3333;" parent="1" vertex="1">
          <mxGeometry x="130" y="87" width="78" height="53" as="geometry" />
        </mxCell>
        <mxCell id="fZUv5z6-WZGmwpLBm6Op-101" value="" style="edgeStyle=orthogonalEdgeStyle;curved=1;orthogonalLoop=1;jettySize=auto;html=1;fontColor=#000000;strokeWidth=1;elbow=vertical;fillColor=#0050ef;strokeColor=#001DBC;" parent="1" source="fZUv5z6-WZGmwpLBm6Op-95" target="fZUv5z6-WZGmwpLBm6Op-100" edge="1">
          <mxGeometry relative="1" as="geometry" />
        </mxCell>
        <mxCell id="fZUv5z6-WZGmwpLBm6Op-95" value="&lt;font color=&quot;#000000&quot;&gt;台北&lt;br&gt;&lt;/font&gt;" style="shape=mxgraph.cisco.routers.router;sketch=0;html=1;pointerEvents=1;dashed=0;fillColor=#036897;strokeColor=#ffffff;strokeWidth=2;verticalLabelPosition=bottom;verticalAlign=top;align=center;outlineConnect=0;fontColor=#FF3333;" parent="1" vertex="1">
          <mxGeometry x="520" y="87" width="78" height="53" as="geometry" />
        </mxCell>
        <mxCell id="fZUv5z6-WZGmwpLBm6Op-98" value="&lt;font color=&quot;#000000&quot;&gt;东京2&lt;br&gt;&lt;br&gt;&lt;/font&gt;" style="shape=mxgraph.cisco.routers.router;sketch=0;html=1;pointerEvents=1;dashed=0;fillColor=#036897;strokeColor=#ffffff;strokeWidth=2;verticalLabelPosition=bottom;verticalAlign=top;align=center;outlineConnect=0;fontColor=#FF3333;" parent="1" vertex="1">
          <mxGeometry x="520" y="-46" width="78" height="53" as="geometry" />
        </mxCell>
        <mxCell id="fZUv5z6-WZGmwpLBm6Op-104" value="" style="edgeStyle=orthogonalEdgeStyle;curved=1;orthogonalLoop=1;jettySize=auto;html=1;fontColor=#000000;strokeWidth=1;elbow=vertical;fillColor=#0050ef;strokeColor=#001DBC;" parent="1" source="fZUv5z6-WZGmwpLBm6Op-100" target="fZUv5z6-WZGmwpLBm6Op-98" edge="1">
          <mxGeometry relative="1" as="geometry" />
        </mxCell>
        <mxCell id="fZUv5z6-WZGmwpLBm6Op-109" style="edgeStyle=orthogonalEdgeStyle;curved=1;orthogonalLoop=1;jettySize=auto;html=1;fontColor=#000000;strokeWidth=1;elbow=vertical;fillColor=#0050ef;strokeColor=#001DBC;" parent="1" source="fZUv5z6-WZGmwpLBm6Op-100" target="fZUv5z6-WZGmwpLBm6Op-53" edge="1">
          <mxGeometry relative="1" as="geometry">
            <Array as="points">
              <mxPoint x="709" y="350" />
              <mxPoint x="866" y="350" />
            </Array>
          </mxGeometry>
        </mxCell>
        <mxCell id="fZUv5z6-WZGmwpLBm6Op-112" style="edgeStyle=orthogonalEdgeStyle;curved=1;orthogonalLoop=1;jettySize=auto;html=1;entryX=0;entryY=0.5;entryDx=0;entryDy=0;entryPerimeter=0;fontColor=#000000;strokeWidth=1;elbow=vertical;fillColor=#0050ef;strokeColor=#001DBC;" parent="1" source="fZUv5z6-WZGmwpLBm6Op-100" target="fZUv5z6-WZGmwpLBm6Op-61" edge="1">
          <mxGeometry relative="1" as="geometry" />
        </mxCell>
        <mxCell id="fZUv5z6-WZGmwpLBm6Op-100" value="&lt;font color=&quot;#000000&quot;&gt;东京1&lt;br&gt;&lt;/font&gt;" style="shape=mxgraph.cisco.routers.router;sketch=0;html=1;pointerEvents=1;dashed=0;fillColor=#036897;strokeColor=#ffffff;strokeWidth=2;verticalLabelPosition=bottom;verticalAlign=top;align=center;outlineConnect=0;fontColor=#FF3333;" parent="1" vertex="1">
          <mxGeometry x="670" y="-46" width="78" height="53" as="geometry" />
        </mxCell>
        <mxCell id="fZUv5z6-WZGmwpLBm6Op-114" value="&lt;font color=&quot;#000000&quot;&gt;圣何塞2&lt;br&gt;&lt;br&gt;&lt;/font&gt;" style="shape=mxgraph.cisco.routers.router;sketch=0;html=1;pointerEvents=1;dashed=0;fillColor=#036897;strokeColor=#ffffff;strokeWidth=2;verticalLabelPosition=bottom;verticalAlign=top;align=center;outlineConnect=0;fontColor=#FF3333;" parent="1" vertex="1">
          <mxGeometry x="1010" y="87" width="78" height="53" as="geometry" />
        </mxCell>
      </root>
    </mxGraphModel>
  </diagram>
</mxfile>
